<mxfile host="app.diagrams.net" modified="2022-09-05T09:49:26.917Z" agent="5.0 (Windows NT 10.0; Win64; x64) AppleWebKit/537.36 (KHTML, like Gecko) Chrome/104.0.0.0 Safari/537.36" etag="2kXJ_eKQZCffUn7FBdbV" version="20.2.7" type="github">
  <diagram id="58sSC5JXQoV5nZuX8xAD" name="Страница 1">
    <mxGraphModel dx="700" dy="872" grid="1" gridSize="10" guides="1" tooltips="1" connect="1" arrows="1" fold="1" page="1" pageScale="1" pageWidth="827" pageHeight="1169" math="0" shadow="0">
      <root>
        <mxCell id="0" />
        <mxCell id="1" parent="0" />
        <mxCell id="NzDwZOVcidQ5wz9ZAWTa-4" value="TRUE" style="edgeStyle=orthogonalEdgeStyle;rounded=0;orthogonalLoop=1;jettySize=auto;html=1;exitX=0.5;exitY=1;exitDx=0;exitDy=0;entryX=0.5;entryY=0;entryDx=0;entryDy=0;" edge="1" parent="1" source="NzDwZOVcidQ5wz9ZAWTa-1" target="NzDwZOVcidQ5wz9ZAWTa-3">
          <mxGeometry relative="1" as="geometry" />
        </mxCell>
        <mxCell id="NzDwZOVcidQ5wz9ZAWTa-1" value="X" style="rhombus;whiteSpace=wrap;html=1;" vertex="1" parent="1">
          <mxGeometry x="390" y="320" width="80" height="80" as="geometry" />
        </mxCell>
        <mxCell id="NzDwZOVcidQ5wz9ZAWTa-2" value="StatementTypeId&amp;nbsp; IN (5, 7, 8, 9, 22, 23)" style="text;html=1;strokeColor=none;fillColor=none;align=center;verticalAlign=middle;whiteSpace=wrap;rounded=0;" vertex="1" parent="1">
          <mxGeometry x="170" y="345" width="210" height="30" as="geometry" />
        </mxCell>
        <mxCell id="NzDwZOVcidQ5wz9ZAWTa-6" value="" style="edgeStyle=orthogonalEdgeStyle;rounded=0;orthogonalLoop=1;jettySize=auto;html=1;exitX=0.5;exitY=1;exitDx=0;exitDy=0;" edge="1" parent="1" source="NzDwZOVcidQ5wz9ZAWTa-3" target="NzDwZOVcidQ5wz9ZAWTa-5">
          <mxGeometry relative="1" as="geometry" />
        </mxCell>
        <mxCell id="NzDwZOVcidQ5wz9ZAWTa-3" value="doc" style="rounded=0;whiteSpace=wrap;html=1;" vertex="1" parent="1">
          <mxGeometry x="370" y="440" width="120" height="30" as="geometry" />
        </mxCell>
        <mxCell id="NzDwZOVcidQ5wz9ZAWTa-5" value="X" style="rhombus;whiteSpace=wrap;html=1;rounded=0;" vertex="1" parent="1">
          <mxGeometry x="210" y="520" width="80" height="80" as="geometry" />
        </mxCell>
        <mxCell id="NzDwZOVcidQ5wz9ZAWTa-7" value="StatementTypeCode is &lt;b&gt;%answer%&lt;/b&gt;" style="text;html=1;strokeColor=none;fillColor=none;align=center;verticalAlign=middle;whiteSpace=wrap;rounded=0;" vertex="1" parent="1">
          <mxGeometry y="545" width="210" height="30" as="geometry" />
        </mxCell>
      </root>
    </mxGraphModel>
  </diagram>
</mxfile>
